<svg width="330" height="425" viewBox="0 0 330 425" fill="none" xmlns="http://www.w3.org/2000/svg">
<g clip-path="url(#clip0_225_617)">
<path d="M129.048 423.745C138.935 423.745 146.95 415.685 146.95 405.743C146.95 395.801 138.935 387.741 129.048 387.741C119.16 387.741 111.145 395.801 111.145 405.743C111.145 415.685 119.16 423.745 129.048 423.745Z" fill="#0B379B"/>
<path d="M124.77 414.849C124.426 414.849 124.084 414.75 123.784 414.556C123.258 414.217 122.944 413.639 122.944 413.011V400.021C122.944 399.358 123.284 398.764 123.854 398.432C124.424 398.1 125.106 398.097 125.678 398.426L138.238 405.642C138.836 405.987 139.188 406.63 139.157 407.322C139.126 408.013 138.717 408.621 138.091 408.909L125.531 414.682C125.287 414.793 125.028 414.849 124.77 414.849Z" fill="white"/>
<path d="M280.389 410.527C282.07 410.633 282.999 408.533 281.727 407.308L281.601 406.803C281.618 406.762 281.634 406.722 281.651 406.681C283.351 402.605 289.113 402.633 290.799 406.715C292.295 410.339 294.2 413.968 294.669 417.8C294.879 419.491 294.785 421.214 294.412 422.873C297.917 415.173 299.762 406.764 299.762 398.308C299.762 396.183 299.646 394.059 299.41 391.94C299.215 390.206 298.947 388.483 298.601 386.776C296.724 377.548 292.661 368.759 286.801 361.418C283.984 359.87 281.634 357.449 280.215 354.548C279.705 353.501 279.306 352.375 279.117 351.229C279.437 351.271 280.326 346.361 280.084 346.06C280.531 345.378 281.33 345.039 281.818 344.374C284.245 341.065 287.589 341.643 289.334 346.139C293.063 348.031 293.099 351.17 290.811 354.188C289.356 356.108 289.156 358.707 287.878 360.763C288.01 360.932 288.146 361.096 288.278 361.265C290.687 364.373 292.771 367.713 294.528 371.222C294.032 367.322 294.765 362.624 296.015 359.595C297.437 356.144 300.104 353.238 302.452 350.254C305.272 346.671 311.056 348.235 311.553 352.777C311.558 352.821 311.562 352.865 311.567 352.909C311.218 353.107 310.877 353.317 310.543 353.539C308.639 354.805 309.297 357.773 311.553 358.123L311.604 358.131C311.478 359.394 311.262 360.647 310.947 361.878C313.959 373.592 307.456 377.859 298.17 378.05C297.965 378.156 297.765 378.262 297.56 378.362C298.501 381.026 299.252 383.758 299.809 386.528C300.309 388.975 300.656 391.448 300.85 393.932C301.092 397.066 301.071 400.216 300.808 403.345L300.824 403.234C301.491 399.788 303.352 396.569 306.053 394.339C310.078 391.015 315.764 389.791 320.106 387.118C322.196 385.832 324.874 387.494 324.509 389.931L324.491 390.048C323.845 390.312 323.214 390.618 322.604 390.962C322.256 391.16 321.914 391.37 321.58 391.592C319.676 392.858 320.334 395.825 322.59 396.176L322.641 396.184C322.678 396.189 322.71 396.194 322.746 396.199C321.637 398.847 320.092 401.305 318.158 403.424C316.274 413.65 308.185 414.62 299.531 411.642H299.526C298.58 415.786 297.197 419.834 295.421 423.692H280.757C280.704 423.529 280.657 423.359 280.609 423.196C281.965 423.28 283.332 423.201 284.667 422.953C283.579 421.61 282.491 420.257 281.403 418.915C281.377 418.888 281.356 418.862 281.335 418.835C280.783 418.148 280.226 417.467 279.674 416.78L279.674 416.779C279.639 414.67 279.891 412.567 280.389 410.527Z" fill="#F2F2F2"/>
<path d="M1.82275 424.026C1.82275 424.566 2.25407 425 2.79117 425H330.972C331.509 425 331.94 424.566 331.94 424.026C331.94 423.486 331.509 423.052 330.972 423.052H2.79117C2.25407 423.052 1.82275 423.486 1.82275 424.026Z" fill="#CCCCCC"/>
<path d="M422.558 222.162H137.743C135.049 222.162 132.86 224.363 132.86 227.072C132.86 229.78 135.049 231.981 137.743 231.981H422.558C425.252 231.981 427.441 229.78 427.441 227.072C427.441 224.363 425.252 222.162 422.558 222.162Z" fill="#E6E6E6"/>
<path d="M326.128 222.162V231.981H137.743C135.049 231.981 132.86 229.78 132.86 227.072C132.86 224.363 135.049 222.162 137.743 222.162H326.128Z" fill="#3F3D56"/>
<path d="M221.017 409.236C219.945 406.461 216.839 405.084 214.079 406.161C211.345 407.228 209.977 410.302 210.993 413.058L210.913 413.089L214.792 423.14L223.989 419.55C224.293 419.49 224.597 419.404 224.896 419.287C227.656 418.21 229.025 415.087 227.954 412.311C226.883 409.536 223.777 408.159 221.017 409.236Z" fill="#FF6584"/>
<path d="M55.6347 417.543L65.2852 417.542L69.876 380.112L55.6328 380.113L55.6347 417.543Z" fill="#FFB6B6"/>
<path d="M88.6985 417.322C88.999 417.831 89.1575 419.474 89.1575 420.066C89.1575 421.884 87.6911 423.359 85.8821 423.359H55.9958C54.7618 423.359 53.7613 422.353 53.7613 421.112V419.861C53.7613 419.861 52.2829 416.101 55.3267 411.466C55.3267 411.466 59.1098 415.095 64.7628 409.411L66.4298 406.374L78.4966 415.248L85.1851 416.076C86.6484 416.257 87.9458 416.048 88.6985 417.322Z" fill="#2F2E41"/>
<path d="M116.811 385.816L126.218 387.979L138.992 352.52L125.107 349.328L116.811 385.816Z" fill="#FFB6B6"/>
<path d="M149.091 393.014C149.271 393.578 149.062 395.214 148.93 395.791C148.527 397.564 146.771 398.673 145.007 398.268L115.873 391.568C114.67 391.291 113.918 390.086 114.193 388.876L114.47 387.657C114.47 387.657 113.863 383.659 117.858 379.824C117.858 379.824 120.741 384.21 127.512 379.936L129.81 377.349L139.606 388.705L145.942 391.011C147.329 391.516 148.64 391.603 149.091 393.014Z" fill="#2F2E41"/>
<path d="M49.6391 209.333L38.3618 224.88L52.8941 394.261H71.5785L74.8656 311.616L83.8169 248.609L130.201 297.706L120.436 359.894L139.152 367.259L160.31 287.886L124.505 228.153L119.622 212.606L49.6391 209.333Z" fill="#2F2E41"/>
<path d="M100.906 74.3184H77.5761L69.9831 84.1376L43.1291 96.4116L47.1979 197.059L38.2466 224.88C38.2466 224.88 80.562 245.337 119.622 212.606L118.809 183.148L132.643 98.0482L108.23 82.5011L100.906 74.3184Z" fill="#FF8333"/>
<path d="M17.4069 220.064C18.1191 217.657 19.3127 215.612 20.7216 214.16L26.0659 190.804L37.044 193.686L30.4407 217.068C30.8309 219.059 30.7183 221.427 30.0062 223.834C28.3792 229.332 24.2399 232.944 20.7607 231.903C17.2815 230.862 15.78 225.562 17.4069 220.064Z" fill="#FFB6B6"/>
<path d="M55.6815 98.0763L48.5235 94.3936C48.5235 94.3936 41.6447 94.8684 38.4545 101.284C35.2643 107.7 35.2643 153.894 35.2643 153.894L20.5894 207.144L33.3502 214.202L50.6978 164.8L55.6815 98.0763Z" fill="#FF8333"/>
<path d="M132.875 226.105C132.826 223.595 133.344 221.282 134.247 219.468L132.275 195.584L143.605 194.973L144.386 219.266C145.359 221.043 145.968 223.334 146.018 225.844C146.13 231.579 143.279 236.287 139.65 236.359C136.021 236.431 132.988 231.84 132.875 226.105Z" fill="#FFB6B6"/>
<path d="M132.447 98.1912L124.514 96.8716C124.514 96.8716 118.104 99.4273 117.005 106.515C115.907 113.602 129.876 157.608 129.876 157.608L132 212.825L146.29 215.646L147.877 163.279L132.447 98.1912Z" fill="#FF8333"/>
<path d="M91.2194 70.1218C103.786 70.1218 113.973 59.8784 113.973 47.2425C113.973 34.6067 103.786 24.3633 91.2194 24.3633C78.6532 24.3633 68.4663 34.6067 68.4663 47.2425C68.4663 59.8784 78.6532 70.1218 91.2194 70.1218Z" fill="#FFB6B6"/>
<path d="M305.118 91.8424C310.719 91.8424 315.26 87.3726 315.26 81.8589C315.26 76.3452 310.719 71.8755 305.118 71.8755C299.516 71.8755 294.976 76.3452 294.976 81.8589C294.976 87.3726 299.516 91.8424 305.118 91.8424Z" fill="#FF4B33"/>
<path d="M386.423 84.9895H331.832C329.959 84.9895 328.435 83.4573 328.435 81.5741C328.435 79.6909 329.959 78.1587 331.832 78.1587H386.423C388.295 78.1587 389.819 79.6909 389.819 81.5741C389.819 83.4573 388.295 84.9895 386.423 84.9895Z" fill="#E6E6E6"/>
<path d="M11.3926 233.881C17.6846 233.881 22.7852 228.752 22.7852 222.425C22.7852 216.098 17.6846 210.969 11.3926 210.969C5.10065 210.969 0 216.098 0 222.425C0 228.752 5.10065 233.881 11.3926 233.881Z" fill="#FFB500"/>
<path d="M17.3185 215.717C16.7757 215.398 15.9467 215.563 15.6485 216.157C14.2943 218.855 12.9402 221.552 11.5861 224.25C10.4937 222.529 9.09622 221.027 7.47506 219.767C6.9529 219.362 6.10756 219.687 5.80498 220.208C5.43619 220.842 5.71945 221.48 6.2429 221.887C8.13336 223.355 9.59116 225.329 10.5727 227.507C10.9458 228.336 12.2912 228.283 12.6806 227.507C14.3726 224.137 16.0645 220.767 17.7564 217.396C18.0534 216.805 17.9119 216.066 17.3185 215.717Z" fill="white"/>
<path d="M317.648 110H228.352C222.644 110 218 102.064 218 92.3087V17.6913C218 7.9364 222.644 0 228.352 0H317.648C323.356 0 328 7.9364 328 17.6913V92.3087C328 102.064 323.356 110 317.648 110ZM228.352 1.6418C223.174 1.6418 218.961 8.84147 218.961 17.6913V92.3087C218.961 101.159 223.174 108.358 228.352 108.358H317.648C322.826 108.358 327.039 101.159 327.039 92.3087V17.6913C327.039 8.84147 322.826 1.6418 317.648 1.6418H228.352Z" fill="#E6E6E6"/>
<path d="M116.604 32.5095C110.671 32.9838 111.485 30.1317 111.485 30.1317L112.018 25.2759C111.865 24.435 111.575 23.7562 110.999 23.4287C109.645 22.6587 108.27 24.1148 106.837 23.5088C105.528 22.9559 104.215 22.4014 102.845 22.0298C101.106 21.5582 100.261 23.4449 98.4648 23.5856C96.7661 23.7186 94.1279 22.0689 92.4725 22.4746C91.0156 22.8319 92.9192 20.5598 91.141 20.3125L85.4446 23.5856C85.4446 23.5856 83.2677 25.4936 83.0034 23.5856C78.3549 24.3377 74.7188 21.0712 73.1798 29.0184C72.2064 34.0451 67.2218 36.788 65.8939 41.7321C64.0026 48.7746 67.2139 54.8761 71.4587 59.7596C72.508 60.9669 70.8503 63.0792 71.6155 64.4856C72.3268 65.793 73.9329 66.4065 74.658 67.7062C75.278 68.8175 76.3978 66.968 77.1159 68.018C77.7356 68.9242 75.3998 69.3933 76.4933 69.4086C77.0299 69.4162 78.4109 69.5272 78.9346 69.4086C80.9161 69.5371 79.3617 69.457 81.0172 69.5608C81.7387 65.3299 78.9191 64.1108 77.4465 60.0816C76.9551 58.737 76.3447 57.4271 76.0445 56.0267C75.7443 54.6263 75.787 53.0815 76.5385 51.8645C77.688 50.0027 80.3666 49.4296 82.3188 50.4037C84.271 51.3777 85.4218 53.6214 85.4069 55.8127C87.0932 54.3753 88.414 52.5573 89.3427 50.5483L88.6997 47.3154C88.6997 47.3154 89.4544 47.9367 90.1013 48.599C91.2852 44.8807 91.1985 40.7416 89.6045 37.1739C90.4369 36.5125 96.5358 39.1721 101.72 40.3549V39.951L105.789 40.7692C109.81 41.5031 110.899 42.5057 109.857 38.3144C109.517 36.9455 111.485 43.224 114.74 41.5875C116.779 40.5622 114.344 38.6054 115.673 36.7421C116.536 35.5308 116.8 33.9977 116.604 32.5095Z" fill="#2F2E41"/>
<path d="M330.127 166.483H171.378V167.301H330.127V166.483Z" fill="#3F3D56"/>
<path d="M244.227 121.896L237.53 118.706C240.277 122.561 242.644 128.581 243.911 133.371C246.057 128.909 249.515 123.449 252.939 120.188L245.861 122.019C250.222 100.524 266.627 85.0936 285.413 85.0936V83.457C265.791 83.457 248.681 99.534 244.227 121.896Z" fill="#3F3D56"/>
<path d="M275.052 154.646H232.736C230.942 154.646 229.481 153.178 229.481 151.373C229.481 149.568 230.942 148.1 232.736 148.1H275.052C276.847 148.1 278.307 149.568 278.307 151.373C278.307 153.178 276.847 154.646 275.052 154.646Z" fill="#13D6C3"/>
</g>
<defs>
<clipPath id="clip0_225_617">
<rect width="330" height="425" fill="white"/>
</clipPath>
</defs>
</svg>
