<svg width="330" height="450" viewBox="0 0 330 450" fill="none" xmlns="http://www.w3.org/2000/svg">
<path d="M203.693 97.8438C226.781 97.8438 245.499 79.1266 245.499 56.0379C245.499 32.9491 226.781 14.2319 203.693 14.2319C180.604 14.2319 161.887 32.9491 161.887 56.0379C161.887 79.1266 180.604 97.8438 203.693 97.8438Z" fill="#FFB500"/>
<path d="M191.668 375.364H12.9137C5.79312 375.364 0 364.735 0 351.67V103.748C0 90.6833 5.79312 80.0542 12.9137 80.0542H191.668C198.789 80.0542 204.582 90.6833 204.582 103.748V351.67C204.582 364.735 198.789 375.364 191.668 375.364ZM12.9137 81.8332C6.32762 81.8332 0.969584 91.664 0.969584 103.748V351.67C0.969584 363.754 6.32762 373.585 12.9137 373.585H191.668C198.255 373.585 203.613 363.754 203.613 351.67V103.748C203.613 91.664 198.255 81.8332 191.668 81.8332H12.9137Z" fill="#3F3D56"/>
<path d="M76.9227 358.353C80.6337 358.258 83.6296 357.692 83.6141 357.09C83.5987 356.488 80.5778 356.077 76.8668 356.172C73.1558 356.267 70.16 356.832 70.1754 357.435C70.1909 358.037 73.2117 358.448 76.9227 358.353Z" fill="#E6E6E6"/>
<path d="M119.513 354.806C123.224 354.711 126.22 354.145 126.204 353.543C126.189 352.941 123.168 352.53 119.457 352.625C115.746 352.72 112.75 353.286 112.766 353.888C112.781 354.49 115.802 354.901 119.513 354.806Z" fill="#3F3D56"/>
<path d="M59.7792 351.018C63.4902 350.923 66.486 350.358 66.4706 349.756C66.4551 349.153 63.4343 348.742 59.7233 348.837C56.0123 348.933 53.0164 349.498 53.0319 350.1C53.0473 350.702 56.0682 351.113 59.7792 351.018Z" fill="#FF6584"/>
<path d="M45.5744 347.785C45.5805 347.244 44.2486 346.79 42.5995 346.771C40.9504 346.752 39.6085 347.176 39.6024 347.718C39.5963 348.259 40.9282 348.713 42.5773 348.732C44.2264 348.751 45.5683 348.327 45.5744 347.785Z" fill="#E6E6E6"/>
<path d="M35.1559 342.03C35.1621 341.489 33.8301 341.035 32.181 341.016C30.5319 340.997 29.1901 341.421 29.184 341.963C29.1778 342.504 30.5097 342.958 32.1588 342.977C33.8079 342.996 35.1498 342.572 35.1559 342.03Z" fill="#3F3D56"/>
<path d="M91.8171 349.873C91.8232 349.331 90.4913 348.877 88.8422 348.858C87.1931 348.84 85.8512 349.263 85.8451 349.805C85.839 350.347 87.1709 350.801 88.82 350.819C90.4691 350.838 91.8109 350.414 91.8171 349.873Z" fill="#E6E6E6"/>
<path d="M72.508 353.515C72.5141 352.973 71.1822 352.519 69.5331 352.5C67.884 352.482 66.5421 352.906 66.536 353.447C66.5299 353.989 67.8618 354.443 69.5109 354.462C71.16 354.48 72.5019 354.056 72.508 353.515Z" fill="#FF6584"/>
<path d="M104.511 356.21C104.517 355.668 103.185 355.214 101.536 355.195C99.8869 355.177 98.5451 355.6 98.5389 356.142C98.5328 356.684 99.8647 357.138 101.514 357.156C103.163 357.175 104.505 356.751 104.511 356.21Z" fill="#3F3D56"/>
<path d="M211.235 356.574C214.946 356.479 217.942 355.913 217.927 355.311C217.911 354.709 214.89 354.298 211.179 354.393C207.468 354.488 204.472 355.054 204.488 355.656C204.503 356.258 207.524 356.669 211.235 356.574Z" fill="#E6E6E6"/>
<path d="M253.826 353.027C257.537 352.932 260.532 352.367 260.517 351.764C260.502 351.162 257.481 350.751 253.77 350.846C250.059 350.941 247.063 351.507 247.078 352.109C247.094 352.711 250.115 353.122 253.826 353.027Z" fill="#3F3D56"/>
<path d="M194.092 349.239C197.803 349.144 200.798 348.579 200.783 347.977C200.768 347.375 197.747 346.964 194.036 347.059C190.325 347.154 187.329 347.719 187.344 348.321C187.36 348.924 190.381 349.335 194.092 349.239Z" fill="#FF6584"/>
<path d="M179.887 346.006C179.893 345.465 178.561 345.011 176.912 344.992C175.263 344.973 173.921 345.397 173.915 345.939C173.909 346.48 175.241 346.935 176.89 346.953C178.539 346.972 179.881 346.548 179.887 346.006Z" fill="#E6E6E6"/>
<path d="M169.468 340.252C169.475 339.71 168.143 339.256 166.494 339.238C164.844 339.219 163.503 339.643 163.496 340.184C163.49 340.726 164.822 341.18 166.471 341.199C168.12 341.218 169.462 340.794 169.468 340.252Z" fill="#3F3D56"/>
<path d="M226.13 348.094C226.136 347.552 224.804 347.098 223.155 347.079C221.506 347.061 220.164 347.485 220.158 348.026C220.151 348.568 221.483 349.022 223.132 349.041C224.782 349.059 226.123 348.635 226.13 348.094Z" fill="#E6E6E6"/>
<path d="M206.82 351.736C206.827 351.194 205.495 350.74 203.846 350.722C202.196 350.703 200.855 351.127 200.849 351.668C200.842 352.21 202.174 352.664 203.823 352.683C205.473 352.701 206.814 352.278 206.82 351.736Z" fill="#FF6584"/>
<path d="M238.823 354.431C238.83 353.889 237.498 353.435 235.849 353.416C234.199 353.398 232.858 353.822 232.851 354.363C232.845 354.905 234.177 355.359 235.826 355.378C237.475 355.396 238.817 354.972 238.823 354.431Z" fill="#3F3D56"/>
<path d="M67.7111 306.165C65.4378 306.308 64.1814 303.483 65.9013 301.837L66.0724 301.157C66.0499 301.102 66.0273 301.048 66.0045 300.994C63.7055 295.512 55.914 295.55 53.6346 301.04C51.6114 305.912 49.0356 310.793 48.4014 315.945C48.117 318.22 48.245 320.537 48.7496 322.768C44.0091 312.413 41.5144 301.105 41.5144 289.734C41.5144 286.877 41.6708 284.02 41.9906 281.17C42.2536 278.838 42.616 276.521 43.0852 274.226C45.6224 261.816 51.1164 249.997 59.0409 240.125C62.8504 238.043 66.0273 234.788 67.9463 230.886C68.6357 229.478 69.1758 227.965 69.4317 226.422C68.9982 226.479 67.797 219.877 68.124 219.471C67.5198 218.555 66.4384 218.099 65.7786 217.204C62.4969 212.755 57.9755 213.532 55.6152 219.578C50.5729 222.123 50.5241 226.343 53.618 230.402C55.5864 232.985 55.8568 236.479 57.5839 239.244C57.4062 239.471 57.2214 239.692 57.0437 239.919C53.7854 244.098 50.9673 248.59 48.5916 253.309C49.2631 248.065 48.2718 241.746 46.5819 237.673C44.6582 233.033 41.0525 229.124 37.8773 225.112C34.0634 220.293 26.2425 222.396 25.5706 228.505C25.5641 228.564 25.5577 228.623 25.5515 228.683C26.0231 228.949 26.4852 229.231 26.9365 229.53C29.5109 231.232 28.6212 235.223 25.5709 235.694L25.5018 235.704C25.6724 237.403 25.9638 239.088 26.3902 240.744C22.3168 256.496 31.111 262.234 43.6679 262.492C43.9451 262.634 44.2152 262.776 44.4924 262.911C43.2202 266.493 42.2038 270.168 41.4505 273.892C40.7753 277.182 40.3062 280.509 40.0432 283.849C39.7162 288.064 39.7447 292.3 40.1001 296.507L40.0788 296.358C39.1762 291.724 36.6602 287.396 33.007 284.396C27.5649 279.926 19.8763 278.28 14.0053 274.686C11.1791 272.956 7.55759 275.192 8.05083 278.468C8.05871 278.521 8.0667 278.573 8.07484 278.625C8.94902 278.981 9.80186 279.393 10.6263 279.855C11.0979 280.121 11.56 280.403 12.0113 280.702C14.5856 282.405 13.6959 286.395 10.6456 286.866L10.5765 286.877C10.5268 286.884 10.4841 286.891 10.4345 286.898C11.9341 290.459 14.0236 293.764 16.639 296.614C19.186 310.365 30.1254 311.67 41.8271 307.665H41.8343C43.1136 313.238 44.9828 318.682 47.385 323.87H67.2142C67.2853 323.65 67.3493 323.422 67.4133 323.202C65.5796 323.316 63.7317 323.209 61.9264 322.875C63.3976 321.07 64.8688 319.25 66.34 317.445C66.3756 317.409 66.404 317.374 66.4324 317.338C67.1787 316.414 67.9321 315.498 68.6783 314.574L68.6787 314.573C68.7254 311.736 68.3848 308.909 67.7111 306.165Z" fill="#0B379B"/>
<path d="M0 325.108C0 325.848 0.274295 326.442 0.615867 326.442H329.384C329.726 326.442 330 325.848 330 325.108C330 324.368 329.726 323.774 329.384 323.774H0.615867C0.274295 323.774 0 324.368 0 325.108Z" fill="#3F3D56"/>
<path d="M272.628 36.4688C274.839 36.4688 276.631 34.6767 276.631 32.4661C276.631 30.2554 274.839 28.4634 272.628 28.4634C270.418 28.4634 268.625 30.2554 268.625 32.4661C268.625 34.6767 270.418 36.4688 272.628 36.4688Z" fill="#E6E6E6"/>
<path d="M285.081 36.4688C287.291 36.4688 289.084 34.6767 289.084 32.4661C289.084 30.2554 287.291 28.4634 285.081 28.4634C282.87 28.4634 281.078 30.2554 281.078 32.4661C281.078 34.6767 282.87 36.4688 285.081 36.4688Z" fill="#E6E6E6"/>
<path d="M297.534 36.4688C299.745 36.4688 301.537 34.6767 301.537 32.4661C301.537 30.2554 299.745 28.4634 297.534 28.4634C295.323 28.4634 293.531 30.2554 293.531 32.4661C293.531 34.6767 295.323 36.4688 297.534 36.4688Z" fill="#E6E6E6"/>
<path d="M173.791 202.663L171.073 160.557C170.822 156.846 167.641 154.022 163.926 154.214C160.028 154.416 157.097 157.845 157.505 161.727L161.669 205.379L163.081 232.01C161.007 233.023 159.629 235.203 159.756 237.653C159.925 240.928 162.717 243.446 165.992 243.277C169.267 243.107 171.785 240.315 171.616 237.04C171.554 235.845 171.139 234.752 170.483 233.852L173.791 202.663Z" fill="#FFB6B6"/>
<path d="M175.496 199.173C176.122 198.513 176.179 197.531 175.716 196.748C175.441 196.284 175.303 195.739 175.351 195.201C175.36 195.097 175.377 170.087 175.4 169.985C175.683 168.72 175.417 167.418 174.552 166.452C173.164 164.901 172.434 162.504 172.078 160.356C171.689 158.006 171.421 155.6 170.48 153.411C169.123 150.254 166.053 147.507 162.053 149.019C160.356 149.66 158.97 150.937 158.063 152.507C156.159 155.8 156.278 159.695 156.426 163.419L155.647 161.973C155.883 166.025 155.289 170.123 153.913 173.941C154.809 173.734 155.491 199.829 155.231 200.712C154.97 201.594 154.185 202.196 153.515 202.828C152.672 203.624 151.89 204.789 152.75 205.928C153.163 206.475 153.823 206.787 154.506 206.851C160.907 207.456 167.432 206.715 173.537 204.695C174.897 204.245 176.351 203.636 177.022 202.37C177.693 201.103 176.927 199.101 175.496 199.173Z" fill="#FF8333"/>
<path d="M115.524 356.387L109.477 358.756L97.2573 336.043L106.181 332.546L115.524 356.387Z" fill="#FFB6B6"/>
<path d="M100.07 373.721C100.657 375.213 102.34 375.949 103.833 375.366L115.854 370.654L116.244 365.56L118.73 369.524L123.267 367.75L116.005 352.967L114.39 353.494L107.797 355.629L105.672 356.321L107.367 360.648L100.365 371.041C99.8326 371.832 99.7224 372.834 100.07 373.721Z" fill="#2F2E41"/>
<path d="M177.225 414.072L170.732 414.206L167.112 388.669L176.695 388.471L177.225 414.072Z" fill="#FFB6B6"/>
<path d="M156.734 424.999C156.769 426.602 158.094 427.874 159.697 427.843L172.605 427.575L174.731 422.929L175.695 427.508L180.566 427.41L178.858 411.029L177.16 410.966L170.236 410.691L168.002 410.606L168.099 415.253L157.936 422.586C157.164 423.145 156.714 424.046 156.734 424.999Z" fill="#2F2E41"/>
<path d="M124.648 202.157L167.349 209.614L165.742 217.649C165.742 217.649 168.42 221.019 167.349 222.28C166.277 223.541 164.135 221.399 166.277 223.541C168.42 225.684 169.107 226.261 165.893 229.475C162.679 232.689 167.859 227.554 167.859 227.554C167.859 227.554 168.105 233.468 169.35 235.323C177.967 248.164 175.654 259.647 171.249 274.47C168.757 282.857 173.895 299.026 173.895 301.981L173.392 322.678C173.392 322.678 184.641 368.208 178.748 389.634L179.581 397.876L165.893 398.205L149.823 333.927C149.823 333.927 147.305 327.485 147.225 325.082C147.145 322.678 147.145 324.821 147.145 322.678C147.145 320.536 146.609 318.393 146.609 317.857C146.609 317.322 142.324 264.942 142.324 264.942C142.324 264.942 126.605 273.614 124.998 275.221C123.391 276.828 120.53 275.358 120.551 277C120.572 278.642 119.076 279.239 117.882 280.558C116.689 281.877 114.721 279.216 115.792 282.966C116.863 286.715 101.57 292.416 99.963 294.023C98.3561 295.63 112.545 307.243 110.766 329.48L109.877 338.375L98.3136 343.712L73.6184 297.705C71.0639 292.191 71.935 285.696 75.8524 281.05L110.767 239.642C110.767 239.642 115.006 219.298 118.756 217.155L124.648 202.157Z" fill="#2F2E41"/>
<path d="M165.132 205.092C165.507 203.491 162.411 192.478 163.728 188.584C164.591 186.034 166.664 184.154 166.637 181.117C166.637 180.919 166.626 180.715 166.6 180.506C166.589 180.398 166.566 180.287 166.551 180.178C169.232 170.63 170.573 152.877 170.573 152.877L157.744 137.579C157.736 137.513 157.725 137.448 157.718 137.381C157.456 135.12 155.551 136.761 153.462 135.572C152.53 135.047 153.015 130.755 151.939 131.05C151.902 131.06 151.869 131.075 151.832 131.086L151.799 131.05L149.683 128.773L138.041 127.702L135.336 131.392L135.334 131.419C133.03 131.846 132.437 132.099 132.086 134.654C132.021 135.137 131.978 135.619 131.962 136.106C131.883 137.929 122.353 139.758 122.79 141.491L119.661 143.577C119.661 143.577 107.902 158.234 112.187 162.519C113.816 164.147 114.667 166.852 115.016 169.793C115.027 169.893 115.049 169.982 115.066 170.076C114.576 171.652 113.891 174.331 115.011 174.909C117.005 175.937 121.3 205.87 116.763 208.006C106.013 213.067 134.852 223.031 146.325 223.637C149.689 223.813 153.701 223.621 156.915 222.721L167.693 223.631L166.804 218.294C174.528 217.635 164.746 206.753 165.132 205.092Z" fill="#FF8333"/>
<path d="M73.3654 123.96L104.795 151.011C107.115 154.045 111.44 154.656 114.509 152.384C117.73 150 118.293 145.402 115.741 142.311L82.1975 114.758L71.0921 85.3342C72.2918 83.2904 72.2345 80.6433 70.7357 78.6181C68.7327 75.9117 64.9149 75.3414 62.2085 77.3444C59.502 79.3475 58.9318 83.1652 60.9348 85.8717C61.666 86.8598 62.6404 87.5595 63.713 87.9569L73.3654 123.96Z" fill="#FFB6B6"/>
<path d="M73.8316 128.471C73.6706 129.391 94.6366 146.274 95.4772 146.681C95.9755 146.922 96.4033 147.31 96.6672 147.797C96.7187 147.892 96.7635 147.991 96.8019 148.091C97.2771 149.335 98.2429 150.298 99.5313 150.633C101.6 151.173 103.584 152.81 105.107 154.446C106.774 156.236 108.369 158.143 110.415 159.482C113.368 161.414 117.553 162.022 120.119 158.459C121.207 156.948 121.668 155.069 121.554 153.21C121.314 149.312 119.003 146.047 116.763 142.944L118.25 143.739C115.749 140.406 111.066 139.553 110.077 135.505C109.428 136.192 108.169 135.561 107.891 134.658C107.613 133.755 87.4859 116.783 87.7004 115.863C87.9706 114.703 87.9781 113.263 86.5965 112.776C85.9324 112.542 85.1909 112.65 84.5701 112.982C78.7489 116.097 76.4525 117.442 72.3747 122.633C71.4658 123.79 70.5673 125.137 70.7116 126.601C70.856 128.066 72.6474 129.344 73.8316 128.471Z" fill="#FF8333"/>
<path d="M141.037 128.657C151.212 128.657 159.46 120.409 159.46 110.234C159.46 100.059 151.212 91.8105 141.037 91.8105C130.862 91.8105 122.614 100.059 122.614 110.234C122.614 120.409 130.862 128.657 141.037 128.657Z" fill="#FFB6B6"/>
<path d="M161.736 101.416C164.313 92.0207 136.226 83.9638 130.768 91.5301C130.009 90.4544 127.204 89.801 125.917 90.131C124.63 90.461 123.548 91.2859 122.492 92.0845C121.04 93.1998 119.535 94.3547 118.644 95.9584C117.747 97.5555 117.608 99.7334 118.816 101.119C119.773 102.221 121.454 108.078 122.893 108.368C123.896 108.573 124.741 108.738 125.467 108.857C126.114 107.913 127.763 106.728 127.644 105.586C128.621 106.233 128.264 107.37 128.067 108.533C127.411 112.406 112.638 142.383 121.099 133.549C121.937 134.044 122.974 134.506 124.168 134.929C126.194 131.873 127.857 128.27 128.953 124.501L128.96 124.571C129.338 127.846 131.731 130.533 134.897 131.45C147.598 135.13 157.872 129.731 161.407 119.994C160.113 117.367 159.549 117.652 159.665 117.574C161.28 116.486 163.5 117.198 164.194 119.017C164.399 119.554 164.585 120.012 164.746 120.357C166.587 113.77 168.777 114.721 161.736 101.416Z" fill="#2F2E41"/>
<path d="M152.973 94.5994L151.676 87.9665C151.567 87.4089 151.463 86.804 151.715 86.2945C152.038 85.6399 152.868 85.3685 153.591 85.4729C154.313 85.5772 154.854 86.2372 155.572 86.3642C158.072 86.8061 161.375 84.3375 162.271 90.5826C162.644 93.1864 166.799 93.4614 168.186 95.6961C169.574 97.9307 169.744 101.156 167.851 102.982C166.338 104.44 163.909 104.608 161.945 103.863C159.981 103.119 158.404 101.614 157.027 100.028C155.65 98.4412 154.403 96.7244 152.815 95.3495" fill="#2F2E41"/>
<path d="M162.725 104.688C157.657 103.98 154.202 102.137 152.457 99.2098C150.173 95.3784 151.703 91.1597 151.769 90.9819L152.841 91.3802C152.826 91.419 151.438 95.2808 153.445 98.6344C155.006 101.243 158.181 102.899 162.883 103.556L162.725 104.688Z" fill="#6C63FF"/>
</svg>
